<svg width="22" height="22" viewBox="0 0 22 22" fill="none" xmlns="http://www.w3.org/2000/svg">
<g clip-path="url(#clip0_29_1192)">
<path d="M16.3607 19.0813C15.884 19.5873 15.3193 19.844 14.652 19.866C13.9847 19.888 13.4567 19.756 13.0827 19.4773C12.7013 19.206 12.1367 19.0667 11.3887 19.0667C10.6407 19.0667 10.054 19.1987 9.65801 19.4553C9.26201 19.712 8.75601 19.8513 8.11801 19.8807C7.46534 19.91 6.88601 19.6533 6.38001 19.096C5.87401 18.5387 5.41201 17.9593 5.00134 17.358C4.58334 16.742 4.19468 16.0087 3.85001 15.18C3.50534 14.344 3.24134 13.4787 3.09468 12.562C2.93334 11.66 2.90401 10.7433 2.97734 9.834C3.05801 8.932 3.31468 8.096 3.74001 7.326C4.18001 6.56333 4.75201 5.962 5.49268 5.51467C6.21868 5.06733 7.00334 4.84 7.84668 4.82533C8.48468 4.80333 9.08601 4.94267 9.66534 5.24333C10.2447 5.544 10.7287 5.69067 11.1393 5.69067C11.55 5.69067 12.0633 5.522 12.7527 5.17C13.442 4.82533 14.1533 4.69333 14.9233 4.774C15.2533 4.796 15.7887 4.91333 16.544 5.13333C17.2993 5.36067 17.9667 5.896 18.5313 6.754C18.502 6.78333 18.1353 7.11333 17.4387 7.722C16.742 8.338 16.3973 9.27667 16.412 10.5233C16.4193 12.034 16.8667 13.0753 17.7467 13.6547C18.6193 14.2413 19.0593 14.542 19.0813 14.5493C19.0593 14.5787 18.9493 14.8867 18.744 15.4513C18.5387 16.0307 18.1867 16.654 17.71 17.3433C17.2993 17.9667 16.8667 18.524 16.3973 19.0373L16.3753 19.0667L16.3607 19.0813ZM13.3687 0.447333C13.904 0.161333 14.432 0.022 14.9307 0C14.9893 0.579333 14.9307 1.144 14.7253 1.70133C14.5273 2.25867 14.2487 2.75733 13.9113 3.17533C13.574 3.59333 13.134 3.938 12.606 4.21667C12.078 4.49533 11.5353 4.61267 10.978 4.56133C10.8973 4.004 10.978 3.43933 11.198 2.882C11.4253 2.32467 11.6967 1.85533 12.0267 1.48133C12.386 1.06333 12.8333 0.718667 13.376 0.425333V0.447333H13.3687Z" fill="white"/>
</g>
<defs>
<clipPath id="clip0_29_1192">
<rect width="22" height="22" fill="white"/>
</clipPath>
</defs>
</svg>
