<svg width="15" height="15" viewBox="0 0 15 15" fill="none" xmlns="http://www.w3.org/2000/svg">
<g clip-path="url(#clip0_267_170)">
<path d="M13.6849 10.945L12.7499 8.86V5.75C12.7499 2.855 10.3949 0.5 7.49994 0.5C4.60494 0.5 2.24994 2.855 2.24994 5.75V8.82L1.31494 10.945C1.21494 11.175 1.23494 11.445 1.37494 11.655C1.51494 11.865 1.74994 11.995 2.00494 11.995H4.34494C4.68494 13.425 5.96994 14.495 7.50494 14.495C9.03994 14.495 10.3249 13.425 10.6649 11.995H13.0049C13.2599 11.995 13.4949 11.865 13.6349 11.655C13.7749 11.44 13.7949 11.175 13.6899 10.94L13.6849 10.945ZM7.49994 13C6.80494 13 6.20994 12.59 5.92494 12H9.07494C8.79494 12.59 8.19494 13 7.49994 13ZM3.14994 10.5L3.68494 9.28C3.72494 9.185 3.74994 9.08 3.74994 8.98V5.75C3.74994 3.68 5.42994 2 7.49994 2C9.56994 2 11.2499 3.68 11.2499 5.75V9.02C11.2499 9.125 11.2699 9.23 11.3149 9.325L11.8399 10.495H3.14994V10.5Z" fill="#FE5653"/>
</g>
<defs>
<clipPath id="clip0_267_170">
<rect width="15" height="15" fill="white"/>
</clipPath>
</defs>
</svg>
