<svg width="18" height="18" viewBox="0 0 18 18" fill="none" xmlns="http://www.w3.org/2000/svg">
<path d="M16.995 16.75H0.994995C0.579995 16.75 0.244995 16.415 0.244995 16V4.5C0.244995 4.085 0.579995 3.75 0.994995 3.75H4.785L5.27 1.82C5.355 1.485 5.655 1.25 6 1.25H12C12.345 1.25 12.645 1.485 12.73 1.82L13.215 3.75H17.005C17.42 3.75 17.755 4.085 17.755 4.5V16C17.755 16.415 17.42 16.75 17.005 16.75H16.995ZM1.745 15.25H16.245V5.25H12.62C12.275 5.25 11.975 5.015 11.89 4.68L11.405 2.75H6.575L6.08999 4.68C6.00499 5.015 5.70499 5.25 5.35999 5.25H1.745V15.25Z" fill="#222222"/>
<path d="M9 13.125C7.21 13.125 5.75 11.665 5.75 9.875C5.75 8.085 7.21 6.625 9 6.625C10.79 6.625 12.25 8.085 12.25 9.875C12.25 11.665 10.79 13.125 9 13.125ZM9 8.125C8.035 8.125 7.25 8.91 7.25 9.875C7.25 10.84 8.035 11.625 9 11.625C9.965 11.625 10.75 10.84 10.75 9.875C10.75 8.91 9.965 8.125 9 8.125Z" fill="#222222"/>
</svg>
