<svg width="22" height="22" viewBox="0 0 22 22" fill="none" xmlns="http://www.w3.org/2000/svg">
<path d="M20.5 2.75H16.75V2C16.75 1.585 16.415 1.25 16 1.25C15.585 1.25 15.25 1.585 15.25 2V2.75H6.75V2C6.75 1.585 6.415 1.25 6 1.25C5.585 1.25 5.25 1.585 5.25 2V2.75H1.5C1.085 2.75 0.75 3.085 0.75 3.5V19.5C0.75 19.915 1.085 20.25 1.5 20.25H20.5C20.915 20.25 21.25 19.915 21.25 19.5V3.5C21.25 3.085 20.915 2.75 20.5 2.75ZM5.25 4.25V5C5.25 5.415 5.585 5.75 6 5.75C6.415 5.75 6.75 5.415 6.75 5V4.25H15.25V5C15.25 5.415 15.585 5.75 16 5.75C16.415 5.75 16.75 5.415 16.75 5V4.25H19.75V7.25H2.25V4.25H5.25ZM2.25 18.75V8.75H19.75V18.75H2.25Z" fill="#D7D7D7"/>
</svg>
