<svg width="22" height="22" viewBox="0 0 22 22" fill="none" xmlns="http://www.w3.org/2000/svg">
<rect x="2.5" y="2.5" width="17" height="17" rx="8.5" fill="#EEEEEE"/>
<path d="M12.06 11.0006L14.53 8.53062C14.825 8.23562 14.825 7.76062 14.53 7.47062C14.235 7.17562 13.76 7.17562 13.47 7.47062L11 9.94062L8.53 7.47062C8.235 7.17562 7.765 7.17562 7.47 7.47062C7.175 7.76562 7.175 8.24062 7.47 8.53062L9.94 11.0006L7.47 13.4706C7.175 13.7656 7.175 14.2406 7.47 14.5306C7.615 14.6756 7.81 14.7506 8 14.7506C8.19 14.7506 8.385 14.6756 8.53 14.5306L11 12.0606L13.47 14.5306C13.615 14.6756 13.81 14.7506 14 14.7506C14.19 14.7506 14.385 14.6756 14.53 14.5306C14.825 14.2356 14.825 13.7606 14.53 13.4706L12.06 11.0006Z" fill="#999999"/>
</svg>
