<svg width="26" height="26" viewBox="0 0 26 26" fill="none" xmlns="http://www.w3.org/2000/svg">
<path d="M12.9999 24.25C12.8099 24.25 12.6199 24.18 12.4749 24.035L2.29994 14.04C-0.430058 11.31 -0.430058 6.87495 2.29994 4.14995C5.02494 1.42495 9.45994 1.42495 12.1849 4.14995L12.9999 4.96495L13.8149 4.14995C16.5399 1.42495 20.9749 1.42495 23.6999 4.14995C26.4249 6.87495 26.4249 11.31 23.6999 14.035L13.5249 24.035C13.3799 24.18 13.1899 24.25 12.9999 24.25ZM7.23994 3.60495C5.83494 3.60495 4.42994 4.13995 3.35994 5.20995C1.21994 7.34995 1.21994 10.835 3.35994 12.975L12.9999 22.45L22.6449 12.97C24.7799 10.835 24.7799 7.34995 22.6449 5.20995C20.5049 3.06995 17.0199 3.06995 14.8799 5.20995L13.5299 6.55995C13.2349 6.85495 12.7599 6.85495 12.4699 6.55995L11.1199 5.20995C10.0499 4.13995 8.64494 3.60495 7.23994 3.60495Z" fill="#222222"/>
</svg>
