<svg width="10" height="10" viewBox="0 0 10 10" fill="none" xmlns="http://www.w3.org/2000/svg">
<g clip-path="url(#clip0_244_111)">
<g clip-path="url(#clip1_244_111)">
<path d="M9.16658 4.37499H5.62492V0.833328C5.62492 0.487495 5.34575 0.208328 4.99992 0.208328C4.65409 0.208328 4.37492 0.487495 4.37492 0.833328V4.37499H0.833252C0.487419 4.37499 0.208252 4.65416 0.208252 4.99999C0.208252 5.34583 0.487419 5.62499 0.833252 5.62499H4.37492V9.16666C4.37492 9.5125 4.65409 9.79166 4.99992 9.79166C5.34575 9.79166 5.62492 9.5125 5.62492 9.16666V5.62499H9.16658C9.51242 5.62499 9.79158 5.34583 9.79158 4.99999C9.79158 4.65416 9.51242 4.37499 9.16658 4.37499Z" fill="#222222"/>
</g>
</g>
<defs>
<clipPath id="clip0_244_111">
<rect width="10" height="10" fill="white"/>
</clipPath>
<clipPath id="clip1_244_111">
<rect width="10" height="10" fill="white"/>
</clipPath>
</defs>
</svg>
