<svg width="22" height="22" viewBox="0 0 22 22" fill="none" xmlns="http://www.w3.org/2000/svg">
<g clip-path="url(#clip0_196_67)">
<g clip-path="url(#clip1_196_67)">
<path d="M21.53 20.47L16.72 15.66C18.14 14 19 11.85 19 9.5C19 4.26 14.74 0 9.5 0C4.26 0 0 4.26 0 9.5C0 14.74 4.26 19 9.5 19C11.85 19 14 18.14 15.66 16.72L20.47 21.53C20.615 21.675 20.81 21.75 21 21.75C21.19 21.75 21.385 21.675 21.53 21.53C21.825 21.235 21.825 20.76 21.53 20.47ZM1.5 9.5C1.5 5.09 5.09 1.5 9.5 1.5C13.91 1.5 17.5 5.09 17.5 9.5C17.5 13.91 13.91 17.5 9.5 17.5C5.09 17.5 1.5 13.91 1.5 9.5Z" fill="#222222"/>
</g>
</g>
<defs>
<clipPath id="clip0_196_67">
<rect width="22" height="22" fill="white"/>
</clipPath>
<clipPath id="clip1_196_67">
<rect width="22" height="22" fill="white"/>
</clipPath>
</defs>
</svg>
