<svg width="15" height="15" viewBox="0 0 15 15" fill="none" xmlns="http://www.w3.org/2000/svg">
<rect width="15" height="15" fill="black" fill-opacity="0.3"/>
<g clip-path="url(#clip0_151_104)">
<path d="M8.56003 7.5L10.78 5.28C11.075 4.985 11.075 4.51 10.78 4.22C10.485 3.93 10.01 3.925 9.72003 4.22L7.50003 6.44L5.28003 4.22C4.98503 3.925 4.51503 3.925 4.22003 4.22C3.92503 4.515 3.92503 4.985 4.22003 5.28L6.44003 7.5L4.22003 9.72C3.92503 10.015 3.92503 10.49 4.22003 10.78C4.36503 10.925 4.56003 11 4.75003 11C4.94003 11 5.13503 10.925 5.28003 10.78L7.50003 8.56L9.72003 10.78C9.86503 10.925 10.06 11 10.25 11C10.44 11 10.635 10.925 10.78 10.78C11.075 10.485 11.075 10.01 10.78 9.72L8.56003 7.5Z" fill="white"/>
</g>
<defs>
<clipPath id="clip0_151_104">
<rect width="7" height="7" fill="white" transform="translate(4 4)"/>
</clipPath>
</defs>
</svg>
