<svg xmlns="http://www.w3.org/2000/svg" width="22" height="22" viewBox="0 0 22 22" fill="none">
  <path d="M15.48 11.63c-.02-2.13 1.74-3.16 1.82-3.21-1-1.47-2.55-1.67-3.1-1.69-1.33-.14-2.59.79-3.26.79-.67 0-1.7-.77-2.8-.75-1.44.02-2.77.84-3.52 2.13-1.5 2.6-.39 6.46 1.08 8.57.71 1.03 1.55 2.18 2.66 2.14 1.07-.04 1.48-.69 2.77-.69 1.29 0 1.66.69 2.79.67 1.15-.02 1.88-1.05 2.58-2.09.82-1.19 1.15-2.35 1.17-2.41-.03-.01-2.17-.84-2.19-3.46zM13.36 5.22c.59-.72.98-1.72.87-2.72-.84.04-1.87.56-2.47 1.27-.54.63-.1 1.64-.87 2.63.95.07 1.89-.51 2.47-1.18z" fill="white"/>
</svg>
