<svg width="21" height="21" viewBox="0 0 21 21" fill="none" xmlns="http://www.w3.org/2000/svg">
<path d="M19.5019 4.95C19.4769 4.555 19.1469 4.25 18.7519 4.25H15.4019C14.9319 1.83 12.8019 0 10.2519 0C7.70189 0 5.56689 1.83 5.10189 4.25H1.75189C1.35689 4.25 1.03189 4.555 1.00189 4.95L0.00188972 19.95C-0.0131103 20.155 0.0618897 20.36 0.20189 20.51C0.34189 20.66 0.54189 20.75 0.75189 20.75H19.7519C19.9619 20.75 20.1569 20.665 20.3019 20.51C20.4469 20.355 20.5169 20.155 20.5019 19.95L19.5019 4.95ZM10.2519 1.5C11.9719 1.5 13.4219 2.665 13.8619 4.25H6.64189C7.08189 2.665 8.53189 1.5 10.2519 1.5ZM1.55189 19.25L2.45189 5.75H5.00189V7.25C5.00189 7.665 5.33689 8 5.75189 8C6.16689 8 6.50189 7.665 6.50189 7.25V5.75H14.0019V7.25C14.0019 7.665 14.3369 8 14.7519 8C15.1669 8 15.5019 7.665 15.5019 7.25V5.75H18.0519L18.9519 19.25H1.55189Z" fill="#222222"/>
</svg>
