<svg width="22" height="22" viewBox="0 0 22 22" fill="none" xmlns="http://www.w3.org/2000/svg">
<g clip-path="url(#clip0_414_422)">
<path d="M6.36501 2.83C6.07501 3.12 5.81501 3.575 5.79001 4.265L3.79001 10.26L0.290007 20.765C0.200007 21.035 0.270007 21.33 0.470007 21.53C0.615007 21.675 0.805007 21.755 1.00501 21.755C1.08001 21.755 1.16001 21.745 1.23501 21.72L12.12 18.235C12.2 18.225 12.27 18.2 12.34 18.165L18.54 16.18C18.74 16.115 18.895 15.975 18.98 15.805C19.05 15.75 19.12 15.7 19.175 15.64C20.885 13.93 18.56 9.81 15.38 6.63C12.2 3.45 8.08001 1.12 6.37001 2.835L6.36501 2.83ZM11.96 16.705C7.20501 15.405 5.60501 11.445 5.29001 10.505L6.49001 6.905C7.24501 8.47 8.55001 10.22 10.165 11.835C11.78 13.45 13.555 14.775 15.135 15.525C15.205 15.56 15.275 15.59 15.345 15.62L11.965 16.7L11.96 16.705ZM6.94001 18.315C6.94001 18.315 6.90001 18.285 6.88001 18.27C5.54001 17.485 4.48501 16.44 3.74001 15.165L4.59001 12.61C5.41001 14.12 6.94501 16.175 9.63501 17.45L6.94001 18.315ZM3.13501 16.96C3.69501 17.69 4.36001 18.335 5.11501 18.895L2.18001 19.835L3.14001 16.96H3.13501ZM18.11 14.575C17.585 15.1 14.675 14.235 11.22 10.78C7.76001 7.32 6.90001 4.415 7.42501 3.89C7.51501 3.8 7.68501 3.75 7.91001 3.75C8.98501 3.75 11.465 4.84 14.315 7.69C17.775 11.145 18.635 14.055 18.11 14.58V14.575Z" fill="#222222"/>
<path d="M15.735 5.7C15.805 5.7 15.88 5.69 15.955 5.665L17.815 5.1C18.02 5.04 18.19 4.89 18.28 4.695L18.945 3.235L20.48 2.77C20.875 2.65 21.1 2.23 20.98 1.835C20.86 1.44 20.44 1.215 20.045 1.335L18.185 1.9C17.98 1.96 17.81 2.11 17.72 2.305L17.055 3.765L15.52 4.23C15.125 4.35 14.9 4.77 15.02 5.165C15.12 5.49 15.415 5.695 15.735 5.695V5.7Z" fill="#222222"/>
<path d="M12.82 3.73C12.88 3.745 12.94 3.755 13 3.755C13.335 3.755 13.64 3.525 13.725 3.185L14.225 1.185C14.325 0.784999 14.08 0.374999 13.68 0.274999C13.275 0.174999 12.87 0.419999 12.77 0.819999L12.27 2.82C12.17 3.22 12.415 3.63 12.815 3.73H12.82Z" fill="#222222"/>
<path d="M21.7 7.485C21.555 7.095 21.12 6.9 20.735 7.045L18.735 7.795C18.345 7.94 18.15 8.375 18.295 8.76C18.41 9.06 18.695 9.245 18.995 9.245C19.085 9.245 19.17 9.23 19.26 9.195L21.26 8.445C21.65 8.3 21.845 7.865 21.7 7.48V7.485Z" fill="#222222"/>
</g>
<defs>
<clipPath id="clip0_414_422">
<rect width="22" height="22" fill="white"/>
</clipPath>
</defs>
</svg>
