<svg width="22" height="22" viewBox="0 0 22 22" fill="none" xmlns="http://www.w3.org/2000/svg">
<g clip-path="url(#clip0_412_394)">
<path d="M16.745 13C17.07 13.26 17.54 13.205 17.8 12.88C18.06 12.555 18.005 12.085 17.68 11.825C16.605 10.97 15.4 10.35 14.12 9.965C15.41 9.01 16.255 7.475 16.255 5.75C16.255 2.855 13.9 0.5 11.005 0.5C8.11 0.5 5.755 2.855 5.755 5.75C5.755 7.475 6.595 9.005 7.89 9.965C3.47 11.305 0.25 15.405 0.25 20.25C0.25 20.665 0.585 21 1 21C1.415 21 1.75 20.665 1.75 20.25C1.75 15.15 5.9 11 11 11C13.11 11 15.095 11.69 16.745 13ZM7.25 5.75C7.25 3.68 8.93 2 11 2C13.07 2 14.75 3.68 14.75 5.75C14.75 7.82 13.07 9.5 11 9.5C8.93 9.5 7.25 7.82 7.25 5.75Z" fill="#222222"/>
<path d="M15.29 14.81C15.01 14.695 14.69 14.755 14.475 14.97L12.475 16.945L10.535 14.98C10.32 14.765 10 14.695 9.715 14.815C9.43 14.935 9.25 15.205 9.25 15.51V20.51C9.25 20.925 9.585 21.26 10 21.26C10.415 21.26 10.75 20.925 10.75 20.51V17.34L11.93 18.54C12.07 18.68 12.26 18.76 12.46 18.765C12.655 18.775 12.85 18.69 12.99 18.55L14.25 17.31V20.515C14.25 20.93 14.585 21.265 15 21.265C15.415 21.265 15.75 20.93 15.75 20.515V15.515C15.75 15.215 15.57 14.94 15.29 14.825V14.81Z" fill="#222222"/>
<path d="M21.475 14.99C21.155 14.725 20.685 14.775 20.42 15.095L19.005 16.815L17.585 15.035C17.325 14.71 16.855 14.66 16.53 14.92C16.205 15.18 16.155 15.65 16.415 15.975L18.25 18.27V20.505C18.25 20.92 18.585 21.255 19 21.255C19.415 21.255 19.75 20.92 19.75 20.505V18.275L21.58 16.05C21.845 15.73 21.795 15.26 21.475 14.995V14.99Z" fill="#222222"/>
</g>
<defs>
<clipPath id="clip0_412_394">
<rect width="22" height="22" fill="white"/>
</clipPath>
</defs>
</svg>
