<svg width="22" height="22" viewBox="0 0 22 22" fill="none" xmlns="http://www.w3.org/2000/svg">
<g clip-path="url(#clip0_412_322)">
<path d="M11 20.595C10.81 20.595 10.615 20.52 10.47 20.375L2.005 11.905C0.875 10.775 0.25 9.27 0.25 7.67C0.25 6.07 0.875 4.565 2.005 3.435C3.135 2.305 4.64 1.68 6.24 1.68C7.84 1.68 9.345 2.305 10.475 3.435L11.005 3.965L11.535 3.435C12.665 2.305 14.17 1.68 15.77 1.68C17.37 1.68 18.875 2.305 20.005 3.435C21.135 4.565 21.76 6.07 21.76 7.67C21.76 9.27 21.135 10.775 20.005 11.905L11.54 20.37C11.395 20.515 11.2 20.59 11.01 20.59L11 20.595ZM6.24 3.185C5.09 3.185 3.94 3.625 3.065 4.495C1.315 6.245 1.315 9.09 3.065 10.84L11 18.775L18.935 10.84C20.685 9.09 20.685 6.245 18.935 4.495C17.185 2.745 14.335 2.745 12.59 4.495L11.53 5.555C11.25 5.835 10.75 5.835 10.47 5.555L9.41 4.495C8.535 3.62 7.385 3.185 6.235 3.185H6.24Z" fill="#222222"/>
</g>
<defs>
<clipPath id="clip0_412_322">
<rect width="22" height="22" fill="white"/>
</clipPath>
</defs>
</svg>
