<svg width="22" height="22" viewBox="0 0 22 22" fill="none" xmlns="http://www.w3.org/2000/svg">
<g clip-path="url(#clip0_88_91)">
<path d="M20 3.75H2C1.585 3.75 1.25 3.415 1.25 3C1.25 2.585 1.585 2.25 2 2.25H20C20.415 2.25 20.75 2.585 20.75 3C20.75 3.415 20.415 3.75 20 3.75Z" fill="#222222"/>
<path d="M20 11.75H2C1.585 11.75 1.25 11.415 1.25 11C1.25 10.585 1.585 10.25 2 10.25H20C20.415 10.25 20.75 10.585 20.75 11C20.75 11.415 20.415 11.75 20 11.75Z" fill="#222222"/>
<path d="M20 19.75H2C1.585 19.75 1.25 19.415 1.25 19C1.25 18.585 1.585 18.25 2 18.25H20C20.415 18.25 20.75 18.585 20.75 19C20.75 19.415 20.415 19.75 20 19.75Z" fill="#222222"/>
</g>
<defs>
<clipPath id="clip0_88_91">
<rect width="22" height="22" fill="white"/>
</clipPath>
</defs>
</svg>
