<svg width="22" height="22" viewBox="0 0 22 22" fill="none" xmlns="http://www.w3.org/2000/svg">
<g clip-path="url(#clip0_88_90)">
<path d="M3 20.225C3 20.64 3.335 20.975 3.75 20.975C4.705 20.975 5.205 20.375 5.535 19.98C5.84 19.615 5.94 19.525 6.17 19.525C6.4 19.525 6.5 19.615 6.805 19.98C7.135 20.375 7.635 20.975 8.59 20.975C9.545 20.975 10.045 20.375 10.375 19.98C10.68 19.615 10.78 19.525 11.01 19.525C11.24 19.525 11.34 19.615 11.64 19.98C11.97 20.375 12.47 20.975 13.425 20.975C14.38 20.975 14.88 20.375 15.21 19.98C15.51 19.615 15.615 19.525 15.84 19.525C16.065 19.525 16.17 19.615 16.47 19.98C16.8 20.375 17.3 20.975 18.255 20.975C18.67 20.975 19.005 20.64 19.005 20.225V5.75H19.505C20.885 5.75 22.005 4.63 22.005 3.25C22.005 1.87 20.885 0.75 19.505 0.75H2.5C1.12 0.75 0 1.87 0 3.25C0 4.63 1.12 5.75 2.5 5.75H3V20.225ZM2.5 4.25C1.95 4.25 1.5 3.8 1.5 3.25C1.5 2.7 1.95 2.25 2.5 2.25H3V4.25H2.5ZM15.835 18.025C14.88 18.025 14.38 18.625 14.05 19.02C13.75 19.385 13.645 19.475 13.42 19.475C13.195 19.475 13.09 19.385 12.79 19.02C12.46 18.625 11.96 18.025 11.005 18.025C10.05 18.025 9.55 18.625 9.22 19.02C8.92 19.385 8.815 19.475 8.59 19.475C8.365 19.475 8.26 19.385 7.955 19.02C7.625 18.625 7.125 18.025 6.17 18.025C5.32 18.025 4.83 18.5 4.5 18.88V2.25H17.5V18.88C17.17 18.495 16.685 18.025 15.835 18.025ZM19.5 4.25H19V2.25H19.5C20.05 2.25 20.5 2.7 20.5 3.25C20.5 3.8 20.05 4.25 19.5 4.25Z" fill="black"/>
<path d="M7 7H11C11.415 7 11.75 6.665 11.75 6.25C11.75 5.835 11.415 5.5 11 5.5H7C6.585 5.5 6.25 5.835 6.25 6.25C6.25 6.665 6.585 7 7 7Z" fill="black"/>
<path d="M15 9H7C6.585 9 6.25 9.335 6.25 9.75C6.25 10.165 6.585 10.5 7 10.5H15C15.415 10.5 15.75 10.165 15.75 9.75C15.75 9.335 15.415 9 15 9Z" fill="black"/>
<path d="M15 12.5H7C6.585 12.5 6.25 12.835 6.25 13.25C6.25 13.665 6.585 14 7 14H15C15.415 14 15.75 13.665 15.75 13.25C15.75 12.835 15.415 12.5 15 12.5Z" fill="black"/>
</g>
<defs>
<clipPath id="clip0_88_90">
<rect width="22" height="22" fill="white"/>
</clipPath>
</defs>
</svg>
