<svg width="22" height="22" viewBox="0 0 22 22" fill="none" xmlns="http://www.w3.org/2000/svg">
<g clip-path="url(#clip0_88_89)">
<path d="M11 15.25C8.655 15.25 6.75 13.345 6.75 11C6.75 8.655 8.655 6.75 11 6.75C13.345 6.75 15.25 8.655 15.25 11C15.25 13.345 13.345 15.25 11 15.25ZM11 8.25C9.485 8.25 8.25 9.485 8.25 11C8.25 12.515 9.485 13.75 11 13.75C12.515 13.75 13.75 12.515 13.75 11C13.75 9.485 12.515 8.25 11 8.25Z" fill="#222222"/>
<path d="M13.75 21.75H8.25C7.865 21.75 7.54 21.46 7.505 21.075L7.415 20.185C7.355 19.605 7.02 19.085 6.515 18.795C5.98499 18.49 5.37 18.455 4.84 18.695L4.025 19.06C3.675 19.22 3.26 19.085 3.065 18.75L0.314995 13.995C0.119995 13.66 0.214995 13.235 0.524995 13.01L1.3 12.45C1.745 12.13 2 11.605 1.995 11.015C1.995 10.39 1.74 9.87 1.3 9.55L0.524995 8.99C0.209995 8.76499 0.119995 8.34 0.314995 8.005L3.065 3.245C3.255 2.91 3.67 2.775 4.025 2.935L4.84 3.29999C5.37 3.53999 5.98499 3.50499 6.49 3.21499C7.01999 2.90999 7.36 2.39 7.415 1.81L7.505 0.919995C7.545 0.534995 7.865 0.244995 8.25 0.244995H13.75C14.135 0.244995 14.46 0.534995 14.495 0.919995L14.585 1.81C14.645 2.39 14.98 2.91 15.485 3.2C16.015 3.505 16.63 3.53499 17.16 3.29999L17.975 2.935C18.325 2.775 18.74 2.91 18.935 3.245L21.685 8.01C21.88 8.345 21.785 8.76999 21.475 8.995L20.7 9.555C20.255 9.875 20 10.4 20.005 10.99V11.015C20.005 11.61 20.26 12.135 20.7 12.455L21.475 13.015C21.79 13.24 21.88 13.665 21.685 14L18.935 18.765C18.745 19.1 18.33 19.23 17.975 19.075L17.16 18.71C16.63 18.47 16.015 18.505 15.51 18.795C14.98 19.1 14.645 19.62 14.585 20.2L14.495 21.09C14.455 21.475 14.135 21.765 13.75 21.765V21.75ZM18.5 10.985C18.5 9.91999 18.99 8.925 19.82 8.33L20.045 8.17L17.975 4.58L17.78 4.67C16.81 5.11 15.685 5.04999 14.76 4.515C13.815 3.97 13.2 3.02 13.09 1.96L13.07 1.745H8.925L8.90499 1.96C8.8 3.02 8.185 3.97 7.255 4.5C6.315 5.045 5.185 5.1 4.215 4.665L4.02 4.575L1.95 8.165L2.175 8.325C3.005 8.92 3.5 9.915 3.495 10.985C3.495 12.075 3.005 13.07 2.175 13.665L1.95 13.825L4.02 17.415L4.215 17.325C5.185 16.89 6.31 16.945 7.235 17.48C8.18 18.025 8.795 18.975 8.90499 20.035L8.925 20.25H13.07L13.09 20.035C13.195 18.975 13.81 18.025 14.74 17.495C15.68 16.95 16.81 16.895 17.78 17.33L17.975 17.42L20.045 13.83L19.82 13.67C18.99 13.075 18.495 12.08 18.5 11.01V10.985Z" fill="#222222"/>
</g>
<defs>
<clipPath id="clip0_88_89">
<rect width="22" height="22" fill="white"/>
</clipPath>
</defs>
</svg>
