<svg width="22" height="22" viewBox="0 0 22 22" fill="none" xmlns="http://www.w3.org/2000/svg">
<g clip-path="url(#clip0_414_412)">
<path d="M20.5 20.75H1.5C1.085 20.75 0.75 20.415 0.75 20V2C0.75 1.585 1.085 1.25 1.5 1.25H20.5C20.915 1.25 21.25 1.585 21.25 2V20C21.25 20.415 20.915 20.75 20.5 20.75ZM2.25 19.25H19.75V2.75H2.25V19.25Z" fill="#222222"/>
<path d="M6.75 7.25H5.25C4.835 7.25 4.5 6.915 4.5 6.5C4.5 6.085 4.835 5.75 5.25 5.75H6.75C7.165 5.75 7.5 6.085 7.5 6.5C7.5 6.915 7.165 7.25 6.75 7.25Z" fill="#222222"/>
<path d="M16.75 7.25H9.75C9.335 7.25 9 6.915 9 6.5C9 6.085 9.335 5.75 9.75 5.75H16.75C17.165 5.75 17.5 6.085 17.5 6.5C17.5 6.915 17.165 7.25 16.75 7.25Z" fill="#222222"/>
<path d="M6.75 11.75H5.25C4.835 11.75 4.5 11.415 4.5 11C4.5 10.585 4.835 10.25 5.25 10.25H6.75C7.165 10.25 7.5 10.585 7.5 11C7.5 11.415 7.165 11.75 6.75 11.75Z" fill="#222222"/>
<path d="M16.75 11.75H9.75C9.335 11.75 9 11.415 9 11C9 10.585 9.335 10.25 9.75 10.25H16.75C17.165 10.25 17.5 10.585 17.5 11C17.5 11.415 17.165 11.75 16.75 11.75Z" fill="#222222"/>
<path d="M6.75 16.25H5.25C4.835 16.25 4.5 15.915 4.5 15.5C4.5 15.085 4.835 14.75 5.25 14.75H6.75C7.165 14.75 7.5 15.085 7.5 15.5C7.5 15.915 7.165 16.25 6.75 16.25Z" fill="#222222"/>
<path d="M16.75 16.25H9.75C9.335 16.25 9 15.915 9 15.5C9 15.085 9.335 14.75 9.75 14.75H16.75C17.165 14.75 17.5 15.085 17.5 15.5C17.5 15.915 17.165 16.25 16.75 16.25Z" fill="#222222"/>
</g>
<defs>
<clipPath id="clip0_414_412">
<rect width="22" height="22" fill="white"/>
</clipPath>
</defs>
</svg>
