<svg width="22" height="22" viewBox="0 0 22 22" fill="none" xmlns="http://www.w3.org/2000/svg">
<g clip-path="url(#clip0_88_87)">
<path d="M12.06 11L20.53 2.53C20.825 2.235 20.825 1.76 20.53 1.47C20.235 1.175 19.76 1.175 19.47 1.47L11 9.94L2.53 1.47C2.235 1.175 1.76 1.175 1.47 1.47C1.175 1.765 1.175 2.24 1.47 2.53L9.94 11L1.47 19.47C1.175 19.765 1.175 20.24 1.47 20.53C1.615 20.675 1.81 20.75 2 20.75C2.19 20.75 2.385 20.675 2.53 20.53L11 12.06L19.47 20.53C19.615 20.675 19.81 20.75 20 20.75C20.19 20.75 20.385 20.675 20.53 20.53C20.825 20.235 20.825 19.76 20.53 19.47L12.06 11Z" fill="#222222"/>
</g>
<defs>
<clipPath id="clip0_88_87">
<rect width="22" height="22" fill="white"/>
</clipPath>
</defs>
</svg>
