<svg width="15" height="15" viewBox="0 0 15 15" fill="none" xmlns="http://www.w3.org/2000/svg">
<g clip-path="url(#clip0_204_132)">
<path d="M14.78 13.72L11.59 10.53C12.47 9.42 13 8.02 13 6.5C13 2.915 10.085 0 6.5 0C2.915 0 0 2.915 0 6.5C0 10.085 2.915 13 6.5 13C8.02 13 9.42 12.47 10.53 11.59L13.72 14.78C13.865 14.925 14.06 15 14.25 15C14.44 15 14.635 14.925 14.78 14.78C15.075 14.485 15.075 14.01 14.78 13.72ZM6.5 11.5C3.745 11.5 1.5 9.255 1.5 6.5C1.5 3.745 3.745 1.5 6.5 1.5C9.255 1.5 11.5 3.745 11.5 6.5C11.5 9.255 9.255 11.5 6.5 11.5Z" fill="#999999"/>
</g>
<defs>
<clipPath id="clip0_204_132">
<rect width="15" height="15" fill="white"/>
</clipPath>
</defs>
</svg>
