<svg width="16" height="16" viewBox="0 0 16 16" fill="none" xmlns="http://www.w3.org/2000/svg">
<g clip-path="url(#clip0_401_5493)">
<path d="M14.3734 6.67973C13.9067 6.10639 13.2134 5.7775 12.4756 5.7775H9.8978L9.61335 4.07084C9.2978 2.18639 7.8178 0.746394 5.92891 0.484171C5.61335 0.439727 5.29335 0.537505 5.04891 0.746393C4.80446 0.959727 4.66669 1.26639 4.66669 1.58639V5.79528C4.59558 5.78639 4.52002 5.77306 4.44446 5.77306H2.22224C1.36446 5.77306 0.666687 6.47084 0.666687 7.32862V13.9953C0.666687 14.8531 1.36446 15.5508 2.22224 15.5508H4.44446C4.77335 15.5508 5.08002 15.4442 5.33335 15.2664C5.58669 15.4442 5.89335 15.5508 6.22224 15.5508H11.8089C12.7511 15.5508 13.5734 14.8842 13.7645 13.9642L14.8667 8.72417C15.0178 7.99973 14.84 7.25306 14.3734 6.67973ZM4.44446 14.2219H2.22224C2.0978 14.2219 2.00002 14.1242 2.00002 13.9997V7.33306C2.00002 7.20862 2.0978 7.11084 2.22224 7.11084H4.44446C4.56891 7.11084 4.66669 7.20862 4.66669 7.33306V13.9997C4.66669 14.1242 4.56891 14.2219 4.44446 14.2219ZM13.5645 8.45306L12.4622 13.6931C12.3956 13.9997 12.1245 14.2219 11.8089 14.2219H6.22224C6.0978 14.2219 6.00002 14.1242 6.00002 13.9997V1.85306C7.18669 2.11973 8.09335 3.07084 8.2978 4.28862L8.67558 6.55528C8.72891 6.87528 9.00891 7.11084 9.33335 7.11084H12.4756C12.8134 7.11084 13.1245 7.26195 13.3378 7.51973C13.5511 7.78195 13.6311 8.11973 13.56 8.44862L13.5645 8.45306Z" fill="#999999"/>
</g>
<defs>
<clipPath id="clip0_401_5493">
<rect width="16" height="16" fill="white"/>
</clipPath>
</defs>
</svg>
