<svg width="12" height="12" viewBox="0 0 12 12" fill="none" xmlns="http://www.w3.org/2000/svg">
<path d="M6.43025 0.292554L7.71716 3.52922C7.78173 3.6964 7.93856 3.80785 8.11384 3.82178L11.5686 4.05396C11.9838 4.08183 12.1544 4.60657 11.8316 4.8759L9.17011 7.10953C9.03174 7.22562 8.97639 7.40673 9.0179 7.57854L9.86661 10.9592C9.96809 11.3678 9.52528 11.6882 9.17473 11.4653L6.24575 9.60785C6.09354 9.51033 5.90442 9.51033 5.75221 9.60785L2.82323 11.4653C2.47268 11.6882 2.02987 11.3632 2.13135 10.9592L2.98006 7.57854C3.02157 7.40673 2.96622 7.22098 2.82785 7.10953L0.1664 4.87126C-0.151866 4.60192 0.0141857 4.07718 0.429316 4.04932L3.88412 3.81713C4.0594 3.8032 4.21623 3.69175 4.2808 3.52458L5.57232 0.292554C5.72915 -0.097518 6.27343 -0.097518 6.43025 0.292554Z" fill="#CCCCCC"/>
</svg>
