<svg width="16" height="16" viewBox="0 0 16 16" fill="none" xmlns="http://www.w3.org/2000/svg">
<g clip-path="url(#clip0_404_5555)">
<path d="M14 4.5H12C12 2.295 10.205 0.5 8 0.5C5.795 0.5 4 2.295 4 4.5H2C1.585 4.5 1.25 4.835 1.25 5.25V14.75C1.25 15.165 1.585 15.5 2 15.5H14C14.415 15.5 14.75 15.165 14.75 14.75V5.25C14.75 4.835 14.415 4.5 14 4.5ZM8 2C9.38 2 10.5 3.12 10.5 4.5H5.5C5.5 3.12 6.62 2 8 2ZM13.25 14H2.75V6H13.25V14Z" fill="#999999"/>
<path d="M8 11.5C8.415 11.5 8.75 11.165 8.75 10.75V8.75C8.75 8.335 8.415 8 8 8C7.585 8 7.25 8.335 7.25 8.75V10.75C7.25 11.165 7.585 11.5 8 11.5Z" fill="#999999"/>
</g>
<defs>
<clipPath id="clip0_404_5555">
<rect width="16" height="16" fill="white"/>
</clipPath>
</defs>
</svg>
