<svg width="22" height="22" viewBox="0 0 22 22" fill="none" xmlns="http://www.w3.org/2000/svg">
<path d="M19.75 10.5H16.5C16.085 10.5 15.75 10.835 15.75 11.25C15.75 11.665 16.085 12 16.5 12H19V19.5H3.5V12H6C6.415 12 6.75 11.665 6.75 11.25C6.75 10.835 6.415 10.5 6 10.5H2.75C2.335 10.5 2 10.835 2 11.25V20.25C2 20.665 2.335 21 2.75 21H19.75C20.165 21 20.5 20.665 20.5 20.25V11.25C20.5 10.835 20.165 10.5 19.75 10.5Z" fill="#999999"/>
<path d="M7.7793 6.78L10.4993 4.06V15.25C10.4993 15.665 10.8343 16 11.2493 16C11.6643 16 11.9993 15.665 11.9993 15.25V4.06L14.7193 6.78C14.8643 6.925 15.0593 7 15.2493 7C15.4393 7 15.6343 6.925 15.7793 6.78C16.0743 6.485 16.0743 6.01 15.7793 5.72L11.7793 1.72C11.7093 1.65 11.6243 1.595 11.5343 1.555H11.5243C11.4393 1.52 11.3493 1.5 11.2493 1.5C11.1493 1.5 11.0593 1.52 10.9743 1.555H10.9643C10.8693 1.595 10.7893 1.65 10.7193 1.72L6.7193 5.72C6.4243 6.015 6.4243 6.49 6.7193 6.78C7.0143 7.07 7.4893 7.075 7.7793 6.78Z" fill="#999999"/>
</svg>
