<svg width="12" height="12" viewBox="0 0 12 12" fill="none" xmlns="http://www.w3.org/2000/svg">
<g clip-path="url(#clip0_388_5539)">
<path d="M6 12C2.685 12 0 9.315 0 6C0 2.685 2.685 0 6 0C9.315 0 12 2.685 12 6C12 9.315 9.315 12 6 12ZM6.75 3.625C6.75 3.21 6.415 2.875 6 2.875C5.585 2.875 5.25 3.21 5.25 3.625V6.125C5.25 6.54 5.585 6.875 6 6.875C6.415 6.875 6.75 6.54 6.75 6.125V3.625ZM6 7.625C5.585 7.625 5.25 7.96 5.25 8.375C5.25 8.79 5.585 9.125 6 9.125C6.415 9.125 6.75 8.79 6.75 8.375C6.75 7.96 6.415 7.625 6 7.625Z" fill="#FE5653"/>
</g>
<defs>
<clipPath id="clip0_388_5539">
<rect width="12" height="12" fill="white" transform="matrix(1 0 0 -1 0 12)"/>
</clipPath>
</defs>
</svg>
