<svg width="30" height="14" viewBox="0 0 30 14" fill="none" xmlns="http://www.w3.org/2000/svg">
<rect width="30" height="14" rx="7" fill="#00DE5A"/>
<mask id="mask0_974_9418" style="mask-type:luminance" maskUnits="userSpaceOnUse" x="4" y="3" width="22" height="8">
<path d="M26 3.20703H4V10.7932H26V3.20703Z" fill="white"/>
</mask>
<g mask="url(#mask0_974_9418)">
<path d="M11.5623 7.00003C11.5624 7.87758 11.2591 8.72799 10.7041 9.40639C10.1491 10.0847 9.37683 10.5491 8.5188 10.7204C7.6608 10.8916 6.77013 10.759 5.99858 10.3454C5.22704 9.93173 4.62235 9.26255 4.28754 8.45178C3.95273 7.64104 3.90853 6.73892 4.16246 5.89915C4.41639 5.05937 4.95275 4.3339 5.68013 3.84634C6.40752 3.35878 7.28094 3.1393 8.15155 3.22529C9.02218 3.31129 9.83614 3.69744 10.4548 4.31795C11.1639 5.02928 11.5623 5.99405 11.5623 7.00003ZM8.41407 5.21744V7.12597L7.09029 5.21705H6.00394V8.7872H7.14832V6.87485L8.47172 8.78261H9.56186V5.21705L8.41407 5.21744Z" fill="black"/>
<path d="M25.1157 5.00705L24.0704 7.39613L22.8896 5.00705H21.9792L23.6535 8.3215L22.9632 9.87466H23.8458L25.9984 5.01162L25.1157 5.00705ZM21.3985 8.70122H20.5345V8.35537C20.2198 8.63124 19.8144 8.78035 19.3965 8.7739C19.1491 8.77128 18.9046 8.7192 18.6774 8.6207C18.4503 8.52223 18.2449 8.3793 18.0735 8.20027C17.902 8.02127 17.7678 7.80977 17.6788 7.57816C17.5898 7.34652 17.5477 7.09943 17.5549 6.85129C17.5479 6.60317 17.5903 6.35613 17.6796 6.12463C17.7688 5.89312 17.9032 5.68179 18.0749 5.50299C18.2465 5.32419 18.452 5.18151 18.6792 5.08329C18.9065 4.98507 19.151 4.93328 19.3984 4.93096C19.8163 4.92452 20.2217 5.07364 20.5363 5.34949V5.00705H21.3985V8.70122ZM20.6361 6.8589C20.6489 6.70265 20.6292 6.54544 20.5784 6.39719C20.5276 6.24894 20.4467 6.11286 20.3408 5.99756C20.2349 5.88226 20.1063 5.79023 19.9632 5.72728C19.82 5.66433 19.6655 5.63183 19.5091 5.63183C19.3529 5.63183 19.1983 5.66433 19.0551 5.72728C18.912 5.79023 18.7834 5.88226 18.6775 5.99756C18.5716 6.11286 18.4907 6.24894 18.4399 6.39719C18.3891 6.54544 18.3694 6.70265 18.3822 6.8589C18.3694 7.01515 18.3891 7.17238 18.4399 7.32061C18.4907 7.46884 18.5716 7.60494 18.6775 7.72025C18.7834 7.83552 18.912 7.92758 19.0551 7.99051C19.1983 8.05348 19.3529 8.08598 19.5091 8.08598C19.6655 8.08598 19.82 8.05348 19.9632 7.99051C20.1063 7.92758 20.2349 7.83552 20.3408 7.72025C20.4467 7.60494 20.5276 7.46884 20.5784 7.32061C20.6292 7.17238 20.6489 7.01515 20.6361 6.8589ZM13.2843 9.87428H14.1859V8.38731C14.4944 8.64486 14.8847 8.78293 15.2859 8.77656C15.5334 8.77394 15.7779 8.72186 16.0051 8.62339C16.2323 8.52488 16.4377 8.382 16.6092 8.203C16.7807 8.024 16.915 7.8125 17.0041 7.58089C17.0932 7.34925 17.1354 7.10213 17.1282 6.85395C17.1355 6.60567 17.0933 6.35843 17.0042 6.12668C16.9151 5.89493 16.7808 5.68334 16.6092 5.50428C16.4376 5.32523 16.2321 5.18229 16.0047 5.08385C15.7774 4.98541 15.5328 4.93343 15.2851 4.93096C14.8664 4.92315 14.4598 5.0724 14.145 5.34949V5.00705H13.2813L13.2843 9.87428ZM15.1778 5.63334C15.333 5.63649 15.4859 5.67105 15.6274 5.73495C15.7689 5.79884 15.8962 5.89076 16.0014 6.00517C16.1066 6.11959 16.1877 6.25416 16.2399 6.40079C16.292 6.54743 16.3141 6.70312 16.3048 6.85852C16.3175 7.01477 16.2979 7.17196 16.2471 7.32023C16.1962 7.46847 16.1153 7.60456 16.0094 7.71987C15.9035 7.83514 15.775 7.9272 15.6318 7.99013C15.4887 8.0531 15.3341 8.0856 15.1778 8.0856C15.0215 8.0856 14.8669 8.0531 14.7238 7.99013C14.5806 7.9272 14.4521 7.83514 14.3462 7.71987C14.2403 7.60456 14.1594 7.46847 14.1086 7.32023C14.0577 7.17196 14.0381 7.01477 14.0509 6.85852C14.0411 6.70301 14.0628 6.54712 14.1147 6.40027C14.1667 6.25342 14.2478 6.11866 14.3531 6.00414C14.4584 5.88962 14.5858 5.79771 14.7276 5.73398C14.8693 5.67025 15.0225 5.63601 15.1778 5.63334Z" fill="black"/>
</g>
</svg>
