<svg width="30" height="14" viewBox="0 0 30 14" fill="none" xmlns="http://www.w3.org/2000/svg">
<rect width="30" height="14" rx="7" fill="#FF2233"/>
<mask id="mask0_974_9432" style="mask-type:luminance" maskUnits="userSpaceOnUse" x="4" y="4" width="22" height="6">
<path d="M26 4.54297H4V9.4563H26V4.54297Z" fill="white"/>
</mask>
<g mask="url(#mask0_974_9432)">
<path d="M24.5121 7.93429C24.388 8.06176 24.2396 8.16307 24.0757 8.23225C23.9119 8.30142 23.7358 8.33706 23.5579 8.33706C23.38 8.33706 23.204 8.30142 23.0401 8.23225C22.8762 8.16307 22.7279 8.06176 22.6038 7.93429C22.3772 7.6776 22.2558 7.34493 22.2636 7.00265C22.2531 6.66134 22.3717 6.32861 22.5959 6.07101C22.7181 5.93951 22.8669 5.83556 23.0324 5.76609C23.198 5.69662 23.3764 5.66322 23.5558 5.66811C23.7345 5.6632 23.9121 5.69661 24.0767 5.76611C24.2413 5.83561 24.3891 5.93957 24.5102 6.07101C24.7367 6.3277 24.8582 6.66037 24.8503 7.00265C24.8587 7.34501 24.7371 7.67786 24.5102 7.93429H24.5121ZM25.2865 5.2278C24.8172 4.79081 24.1997 4.54785 23.5585 4.54785C22.9172 4.54785 22.2998 4.79081 21.8305 5.2278C21.5978 5.45982 21.4146 5.73664 21.2919 6.04152C21.1693 6.34639 21.1097 6.67298 21.1169 7.00152C21.1096 7.33047 21.169 7.65749 21.2917 7.96282C21.4143 8.26814 21.5976 8.54541 21.8305 8.77787C22.2998 9.21487 22.9172 9.45783 23.5585 9.45783C24.1997 9.45783 24.8172 9.21487 25.2865 8.77787C25.5195 8.54553 25.7029 8.26828 25.8256 7.96293C25.9482 7.65758 26.0076 7.33049 26 7.00152C26.0073 6.67296 25.9478 6.34635 25.8252 6.04147C25.7025 5.73658 25.5193 5.45977 25.2865 5.2278Z" fill="white"/>
<path fill-rule="evenodd" clip-rule="evenodd" d="M20.146 7.77324L20.1237 7.80121C19.9991 7.95578 19.8438 8.08284 19.6676 8.17436C19.4914 8.26589 19.2982 8.31989 19.1001 8.33296C18.9019 8.34603 18.7033 8.31788 18.5166 8.2503C18.3299 8.18271 18.1593 8.07716 18.0155 7.9403C17.7848 7.68051 17.6617 7.34268 17.6711 6.99543C17.6651 6.81648 17.6962 6.63822 17.7624 6.47187C17.8286 6.30551 17.9285 6.15465 18.0558 6.02878C18.1832 5.9029 18.3352 5.80473 18.5023 5.74045C18.6694 5.67616 18.848 5.64714 19.0269 5.65522C19.2218 5.65431 19.4149 5.69418 19.5935 5.77229C19.7722 5.8504 19.9326 5.96501 20.0643 6.10876L20.0874 6.13219L20.9249 5.42429L20.9026 5.39633C20.6925 5.12815 20.424 4.91139 20.1176 4.76251C19.7656 4.60979 19.3848 4.53477 19.0012 4.54254C18.3856 4.53172 17.7873 4.74594 17.3185 5.14499C17.0611 5.37878 16.8567 5.66507 16.7193 5.98454C16.5818 6.30401 16.5145 6.64924 16.5218 6.99694C16.5132 7.59052 16.7184 8.16739 17.1001 8.62212C17.3387 8.88885 17.6321 9.10099 17.9602 9.24409C18.2882 9.38719 18.6433 9.45788 19.0012 9.45133C19.4283 9.46653 19.8518 9.36806 20.2283 9.16598C20.5295 8.98783 20.7849 8.74196 20.9744 8.44788L20.9937 8.41878L20.146 7.77627V7.77324Z" fill="white"/>
<path fill-rule="evenodd" clip-rule="evenodd" d="M15.2198 4.66406L14.2341 6.62184L13.256 4.66406H11.9362L13.6604 7.83051V9.32757H14.809V7.83051L16.5332 4.66406H15.2198Z" fill="white"/>
<path d="M10.2184 5.73668L10.8299 7.37924H9.62049L10.2184 5.73668ZM10.9773 4.66406H9.45305L7.73074 9.32719H8.90238L9.23082 8.42805H11.2169L11.5518 9.32719H12.7197L10.9773 4.66406Z" fill="white"/>
<path d="M6.55909 6.95592C6.42603 7.01493 6.2817 7.04421 6.13616 7.04171H5.08471V5.70151H6.07872C6.22406 5.69709 6.36897 5.71951 6.50618 5.76765C6.62682 5.81424 6.72782 5.90082 6.79228 6.01294C6.84796 6.11985 6.8748 6.23944 6.87014 6.35989C6.88527 6.47945 6.86351 6.60078 6.80779 6.70764C6.75206 6.81449 6.66503 6.90178 6.55833 6.95781L6.55909 6.95592ZM7.62037 5.27065C7.4489 5.05769 7.22648 4.89142 6.9737 4.78725C6.73373 4.7018 6.48044 4.65982 6.22574 4.66328H4V9.32641H5.14859V8.06482H6.22574C6.52493 8.06474 6.82087 8.00285 7.09502 7.88303C7.41893 7.72514 7.67614 7.45721 7.82068 7.12713C7.92695 6.88518 7.98178 6.62378 7.98169 6.35952C7.98588 5.96667 7.85841 5.58374 7.61961 5.27178L7.62037 5.27065Z" fill="white"/>
</g>
</svg>
